<?xml version="1.0" encoding="UTF-8"?>
<svg width="1600" height="1600" viewBox="0 0 1600 1600"
     xmlns="http://www.w3.org/2000/svg" version="1.1">
  <defs>
    <style>
      .bg { fill: #101215; }
      .curve { fill: none; stroke: #FFC857; stroke-width: 5.0;
                stroke-linecap: round; stroke-linejoin: round; }
      .label { fill: #FFFFFF; font-family: sans-serif; font-weight: bold;
                font-size: 80.0px; }
    </style>
  </defs>
  <rect class="bg" x="0" y="0" width="1600" height="1600" />
  <path class="curve" d="M 1015.579 76.55 L 1042.526 76.55 L 1056 99.887 L 1029.053 99.887 L 1015.579 123.224 L 1042.526 123.224 L 1069.474 123.224 L 1082.947 99.887 L 1109.895 99.887 L 1123.368 123.224 L 1136.842 146.561 L 1109.895 146.561 L 1096.421 123.224 L 1082.947 146.561 L 1096.421 169.898 L 1082.947 193.235 L 1056 193.235 L 1029.053 193.235 L 1042.526 169.898 L 1069.474 169.898 L 1056 146.561 L 1029.053 146.561 L 1015.579 169.898 L 988.632 169.898 L 1002.105 146.561 L 988.632 123.224 L 975.158 146.561 L 961.684 169.898 L 975.158 193.235 L 1002.105 193.235 L 1015.579 216.572 L 988.632 216.572 L 975.158 239.909 L 1002.105 239.909 L 1029.053 239.909 L 1042.526 216.572 L 1069.474 216.572 L 1082.947 239.909 L 1056 239.909 L 1042.526 263.247 L 1069.474 263.247 L 1096.421 263.247 L 1109.895 239.909 L 1096.421 216.572 L 1109.895 193.235 L 1123.368 169.898 L 1136.842 193.235 L 1123.368 216.572 L 1150.316 216.572 L 1163.789 193.235 L 1190.737 193.235 L 1204.211 216.572 L 1177.263 216.572 L 1163.789 239.909 L 1190.737 239.909 L 1217.684 239.909 L 1231.158 216.572 L 1258.105 216.572 L 1271.579 239.909 L 1285.053 263.247 L 1258.105 263.247 L 1244.632 239.909 L 1231.158 263.247 L 1244.632 286.584 L 1271.579 286.584 L 1285.053 309.921 L 1298.526 333.258 L 1271.579 333.258 L 1258.105 309.921 L 1244.632 333.258 L 1258.105 356.595 L 1244.632 379.932 L 1217.684 379.932 L 1190.737 379.932 L 1204.211 356.595 L 1231.158 356.595 L 1217.684 333.258 L 1190.737 333.258 L 1177.263 309.921 L 1190.737 286.584 L 1204.211 309.921 L 1231.158 309.921 L 1217.684 286.584 L 1204.211 263.247 L 1177.263 263.247 L 1163.789 286.584 L 1136.842 286.584 L 1150.316 263.247 L 1136.842 239.909 L 1123.368 263.247 L 1109.895 286.584 L 1123.368 309.921 L 1150.316 309.921 L 1163.789 333.258 L 1177.263 356.595 L 1150.316 356.595 L 1136.842 333.258 L 1123.368 356.595 L 1136.842 379.932 L 1123.368 403.269 L 1096.421 403.269 L 1109.895 379.932 L 1096.421 356.595 L 1082.947 379.932 L 1069.474 403.269 L 1082.947 426.606 L 1069.474 449.943 L 1042.526 449.943 L 1015.579 449.943 L 1029.053 426.606 L 1056 426.606 L 1042.526 403.269 L 1015.579 403.269 L 1002.105 426.606 L 975.158 426.606 L 948.211 426.606 L 961.684 403.269 L 988.632 403.269 L 975.158 379.932 L 948.211 379.932 L 934.737 356.595 L 948.211 333.258 L 961.684 309.921 L 975.158 333.258 L 961.684 356.595 L 988.632 356.595 L 1002.105 333.258 L 1029.053 333.258 L 1042.526 356.595 L 1015.579 356.595 L 1002.105 379.932 L 1029.053 379.932 L 1056 379.932 L 1069.474 356.595 L 1056 333.258 L 1069.474 309.921 L 1082.947 333.258 L 1109.895 333.258 L 1096.421 309.921 L 1082.947 286.584 L 1056 286.584 L 1042.526 309.921 L 1015.579 309.921 L 988.632 309.921 L 1002.105 286.584 L 1029.053 286.584 L 1015.579 263.247 L 988.632 263.247 L 975.158 286.584 L 948.211 286.584 L 961.684 263.247 L 948.211 239.909 L 934.737 263.247 L 921.263 286.584 L 934.737 309.921 L 921.263 333.258 L 894.316 333.258 L 867.368 333.258 L 880.842 309.921 L 907.789 309.921 L 894.316 286.584 L 867.368 286.584 L 853.895 263.247 L 867.368 239.909 L 880.842 216.572 L 894.316 239.909 L 880.842 263.247 L 907.789 263.247 L 921.263 239.909 L 907.789 216.572 L 921.263 193.235 L 934.737 216.572 L 961.684 216.572 L 948.211 193.235 L 934.737 169.898 L 907.789 169.898 L 894.316 193.235 L 867.368 193.235 L 880.842 169.898 L 867.368 146.561 L 853.895 169.898 L 840.421 193.235 L 853.895 216.572 L 840.421 239.909 L 813.474 239.909 L 826.947 216.572 L 813.474 193.235 L 800 216.572 L 786.526 239.909 L 800 263.247 L 826.947 263.247 L 840.421 286.584 L 853.895 309.921 L 826.947 309.921 L 813.474 286.584 L 800 309.921 L 813.474 333.258 L 840.421 333.258 L 853.895 356.595 L 826.947 356.595 L 813.474 379.932 L 840.421 379.932 L 867.368 379.932 L 880.842 356.595 L 907.789 356.595 L 921.263 379.932 L 934.737 403.269 L 907.789 403.269 L 894.316 379.932 L 880.842 403.269 L 894.316 426.606 L 880.842 449.943 L 853.895 449.943 L 826.947 449.943 L 840.421 426.606 L 867.368 426.606 L 853.895 403.269 L 826.947 403.269 L 813.474 426.606 L 786.526 426.606 L 800 403.269 L 786.526 379.932 L 773.053 403.269 L 759.579 426.606 L 773.053 449.943 L 800 449.943 L 813.474 473.281 L 786.526 473.281 L 773.053 496.618 L 800 496.618 L 826.947 496.618 L 840.421 473.281 L 867.368 473.281 L 880.842 496.618 L 853.895 496.618 L 840.421 519.955 L 867.368 519.955 L 894.316 519.955 L 907.789 496.618 L 894.316 473.281 L 907.789 449.943 L 921.263 426.606 L 934.737 449.943 L 921.263 473.281 L 948.211 473.281 L 961.684 449.943 L 988.632 449.943 L 1002.105 473.281 L 975.158 473.281 L 961.684 496.618 L 988.632 496.618 L 1015.579 496.618 L 1029.053 473.281 L 1056 473.281 L 1069.474 496.618 L 1082.947 519.955 L 1056 519.955 L 1042.526 496.618 L 1029.053 519.955 L 1042.526 543.292 L 1029.053 566.629 L 1002.105 566.629 L 975.158 566.629 L 988.632 543.292 L 1015.579 543.292 L 1002.105 519.955 L 975.158 519.955 L 961.684 543.292 L 934.737 543.292 L 948.211 519.955 L 934.737 496.618 L 921.263 519.955 L 907.789 543.292 L 921.263 566.629 L 948.211 566.629 L 961.684 589.966 L 934.737 589.966 L 921.263 613.303 L 948.211 613.303 L 975.158 613.303 L 988.632 589.966 L 1015.579 589.966 L 1029.053 613.303 L 1002.105 613.303 L 988.632 636.64 L 1015.579 636.64 L 1042.526 636.64 L 1056 613.303 L 1042.526 589.966 L 1056 566.629 L 1069.474 543.292 L 1082.947 566.629 L 1069.474 589.966 L 1096.421 589.966 L 1109.895 566.629 L 1096.421 543.292 L 1109.895 519.955 L 1123.368 543.292 L 1150.316 543.292 L 1136.842 519.955 L 1123.368 496.618 L 1096.421 496.618 L 1082.947 473.281 L 1096.421 449.943 L 1109.895 426.606 L 1123.368 449.943 L 1109.895 473.281 L 1136.842 473.281 L 1150.316 449.943 L 1136.842 426.606 L 1150.316 403.269 L 1163.789 379.932 L 1177.263 403.269 L 1163.789 426.606 L 1190.737 426.606 L 1204.211 403.269 L 1231.158 403.269 L 1244.632 426.606 L 1258.105 449.943 L 1231.158 449.943 L 1217.684 426.606 L 1204.211 449.943 L 1217.684 473.281 L 1204.211 496.618 L 1177.263 496.618 L 1190.737 473.281 L 1177.263 449.943 L 1163.789 473.281 L 1150.316 496.618 L 1163.789 519.955 L 1190.737 519.955 L 1204.211 543.292 L 1177.263 543.292 L 1163.789 566.629 L 1190.737 566.629 L 1217.684 566.629 L 1231.158 543.292 L 1217.684 519.955 L 1231.158 496.618 L 1244.632 473.281 L 1258.105 496.618 L 1244.632 519.955 L 1271.579 519.955 L 1285.053 496.618 L 1312 496.618 L 1325.474 519.955 L 1298.526 519.955 L 1285.053 543.292 L 1312 543.292 L 1338.947 543.292 L 1352.421 519.955 L 1379.368 519.955 L 1392.842 543.292 L 1406.316 566.629 L 1379.368 566.629 L 1365.895 543.292 L 1352.421 566.629 L 1365.895 589.966 L 1352.421 613.303 L 1325.474 613.303 L 1298.526 613.303 L 1312 589.966 L 1338.947 589.966 L 1325.474 566.629 L 1298.526 566.629 L 1285.053 589.966 L 1258.105 589.966 L 1271.579 566.629 L 1258.105 543.292 L 1244.632 566.629 L 1231.158 589.966 L 1244.632 613.303 L 1271.579 613.303 L 1285.053 636.64 L 1258.105 636.64 L 1244.632 659.977 L 1271.579 659.977 L 1298.526 659.977 L 1312 636.64 L 1338.947 636.64 L 1352.421 659.977 L 1325.474 659.977 L 1312 683.314 L 1338.947 683.314 L 1365.895 683.314 L 1379.368 659.977 L 1365.895 636.64 L 1379.368 613.303 L 1392.842 589.966 L 1406.316 613.303 L 1392.842 636.64 L 1419.789 636.64 L 1433.263 613.303 L 1460.211 613.303 L 1473.684 636.64 L 1446.737 636.64 L 1433.263 659.977 L 1460.211 659.977 L 1487.158 659.977 L 1500.632 636.64 L 1527.579 636.64 L 1541.053 659.977 L 1554.526 683.314 L 1527.579 683.314 L 1514.105 659.977 L 1500.632 683.314 L 1514.105 706.652 L 1541.053 706.652 L 1554.526 729.989 L 1568 753.326 L 1541.053 753.326 L 1527.579 729.989 L 1514.105 753.326 L 1527.579 776.663 L 1514.105 800 L 1487.158 800 L 1460.211 800 L 1473.684 776.663 L 1500.632 776.663 L 1487.158 753.326 L 1460.211 753.326 L 1446.737 729.989 L 1460.211 706.652 L 1473.684 729.989 L 1500.632 729.989 L 1487.158 706.652 L 1473.684 683.314 L 1446.737 683.314 L 1433.263 706.652 L 1406.316 706.652 L 1419.789 683.314 L 1406.316 659.977 L 1392.842 683.314 L 1379.368 706.652 L 1392.842 729.989 L 1419.789 729.989 L 1433.263 753.326 L 1446.737 776.663 L 1419.789 776.663 L 1406.316 753.326 L 1392.842 776.663 L 1406.316 800 L 1433.263 800 L 1446.737 823.337 L 1419.789 823.337 L 1406.316 846.674 L 1433.263 846.674 L 1460.211 846.674 L 1473.684 823.337 L 1500.632 823.337 L 1514.105 846.674 L 1527.579 870.011 L 1500.632 870.011 L 1487.158 846.674 L 1473.684 870.011 L 1487.158 893.348 L 1514.105 893.348 L 1527.579 916.686 L 1541.053 940.023 L 1514.105 940.023 L 1500.632 916.686 L 1487.158 940.023 L 1500.632 963.36 L 1487.158 986.697 L 1460.211 986.697 L 1433.263 986.697 L 1446.737 963.36 L 1473.684 963.36 L 1460.211 940.023 L 1433.263 940.023 L 1419.789 916.686 L 1433.263 893.348 L 1446.737 916.686 L 1473.684 916.686 L 1460.211 893.348 L 1446.737 870.011 L 1419.789 870.011 L 1406.316 893.348 L 1379.368 893.348 L 1392.842 870.011 L 1379.368 846.674 L 1365.895 870.011 L 1352.421 893.348 L 1365.895 916.686 L 1392.842 916.686 L 1406.316 940.023 L 1419.789 963.36 L 1392.842 963.36 L 1379.368 940.023 L 1365.895 963.36 L 1379.368 986.697 L 1365.895 1010.034 L 1338.947 1010.034 L 1352.421 986.697 L 1338.947 963.36 L 1325.474 986.697 L 1312 1010.034 L 1325.474 1033.371 L 1312 1056.708 L 1285.053 1056.708 L 1258.105 1056.708 L 1271.579 1033.371 L 1298.526 1033.371 L 1285.053 1010.034 L 1258.105 1010.034 L 1244.632 1033.371 L 1217.684 1033.371 L 1190.737 1033.371 L 1204.211 1010.034 L 1231.158 1010.034 L 1217.684 986.697 L 1190.737 986.697 L 1177.263 963.36 L 1190.737 940.023 L 1204.211 916.686 L 1217.684 940.023 L 1204.211 963.36 L 1231.158 963.36 L 1244.632 940.023 L 1271.579 940.023 L 1285.053 963.36 L 1258.105 963.36 L 1244.632 986.697 L 1271.579 986.697 L 1298.526 986.697 L 1312 963.36 L 1298.526 940.023 L 1312 916.686 L 1325.474 940.023 L 1352.421 940.023 L 1338.947 916.686 L 1325.474 893.348 L 1298.526 893.348 L 1285.053 916.686 L 1258.105 916.686 L 1231.158 916.686 L 1244.632 893.348 L 1271.579 893.348 L 1258.105 870.011 L 1231.158 870.011 L 1217.684 846.674 L 1231.158 823.337 L 1244.632 846.674 L 1271.579 846.674 L 1258.105 823.337 L 1244.632 800 L 1217.684 800 L 1204.211 776.663 L 1217.684 753.326 L 1231.158 729.989 L 1244.632 753.326 L 1231.158 776.663 L 1258.105 776.663 L 1271.579 753.326 L 1298.526 753.326 L 1312 776.663 L 1325.474 800 L 1298.526 800 L 1285.053 776.663 L 1271.579 800 L 1285.053 823.337 L 1312 823.337 L 1325.474 846.674 L 1298.526 846.674 L 1285.053 870.011 L 1312 870.011 L 1338.947 870.011 L 1352.421 846.674 L 1338.947 823.337 L 1352.421 800 L 1365.895 823.337 L 1392.842 823.337 L 1379.368 800 L 1365.895 776.663 L 1338.947 776.663 L 1325.474 753.326 L 1338.947 729.989 L 1352.421 753.326 L 1379.368 753.326 L 1365.895 729.989 L 1352.421 706.652 L 1325.474 706.652 L 1312 729.989 L 1285.053 729.989 L 1258.105 729.989 L 1271.579 706.652 L 1298.526 706.652 L 1285.053 683.314 L 1258.105 683.314 L 1244.632 706.652 L 1217.684 706.652 L 1231.158 683.314 L 1217.684 659.977 L 1204.211 683.314 L 1190.737 706.652 L 1204.211 729.989 L 1190.737 753.326 L 1163.789 753.326 L 1136.842 753.326 L 1150.316 729.989 L 1177.263 729.989 L 1163.789 706.652 L 1136.842 706.652 L 1123.368 683.314 L 1136.842 659.977 L 1150.316 636.64 L 1163.789 659.977 L 1150.316 683.314 L 1177.263 683.314 L 1190.737 659.977 L 1177.263 636.64 L 1190.737 613.303 L 1204.211 636.64 L 1231.158 636.64 L 1217.684 613.303 L 1204.211 589.966 L 1177.263 589.966 L 1163.789 613.303 L 1136.842 613.303 L 1150.316 589.966 L 1136.842 566.629 L 1123.368 589.966 L 1109.895 613.303 L 1123.368 636.64 L 1109.895 659.977 L 1082.947 659.977 L 1096.421 636.64 L 1082.947 613.303 L 1069.474 636.64 L 1056 659.977 L 1069.474 683.314 L 1096.421 683.314 L 1109.895 706.652 L 1123.368 729.989 L 1096.421 729.989 L 1082.947 706.652 L 1069.474 729.989 L 1082.947 753.326 L 1109.895 753.326 L 1123.368 776.663 L 1096.421 776.663 L 1082.947 800 L 1109.895 800 L 1136.842 800 L 1150.316 776.663 L 1177.263 776.663 L 1190.737 800 L 1204.211 823.337 L 1177.263 823.337 L 1163.789 800 L 1150.316 823.337 L 1163.789 846.674 L 1190.737 846.674 L 1204.211 870.011 L 1217.684 893.348 L 1190.737 893.348 L 1177.263 870.011 L 1163.789 893.348 L 1177.263 916.686 L 1163.789 940.023 L 1136.842 940.023 L 1109.895 940.023 L 1123.368 916.686 L 1150.316 916.686 L 1136.842 893.348 L 1109.895 893.348 L 1096.421 870.011 L 1109.895 846.674 L 1123.368 870.011 L 1150.316 870.011 L 1136.842 846.674 L 1123.368 823.337 L 1096.421 823.337 L 1082.947 846.674 L 1056 846.674 L 1069.474 823.337 L 1056 800 L 1042.526 823.337 L 1029.053 846.674 L 1042.526 870.011 L 1069.474 870.011 L 1082.947 893.348 L 1096.421 916.686 L 1069.474 916.686 L 1056 893.348 L 1042.526 916.686 L 1056 940.023 L 1042.526 963.36 L 1015.579 963.36 L 1029.053 940.023 L 1015.579 916.686 L 1002.105 940.023 L 988.632 963.36 L 1002.105 986.697 L 988.632 1010.034 L 961.684 1010.034 L 934.737 1010.034 L 948.211 986.697 L 975.158 986.697 L 961.684 963.36 L 934.737 963.36 L 921.263 940.023 L 934.737 916.686 L 948.211 893.348 L 961.684 916.686 L 948.211 940.023 L 975.158 940.023 L 988.632 916.686 L 975.158 893.348 L 988.632 870.011 L 1002.105 893.348 L 1029.053 893.348 L 1015.579 870.011 L 1002.105 846.674 L 975.158 846.674 L 961.684 870.011 L 934.737 870.011 L 948.211 846.674 L 934.737 823.337 L 921.263 846.674 L 907.789 870.011 L 921.263 893.348 L 907.789 916.686 L 880.842 916.686 L 894.316 893.348 L 880.842 870.011 L 867.368 893.348 L 853.895 916.686 L 867.368 940.023 L 894.316 940.023 L 907.789 963.36 L 921.263 986.697 L 894.316 986.697 L 880.842 963.36 L 867.368 986.697 L 880.842 1010.034 L 867.368 1033.371 L 840.421 1033.371 L 853.895 1010.034 L 840.421 986.697 L 826.947 1010.034 L 813.474 1033.371 L 826.947 1056.708 L 813.474 1080.045 L 786.526 1080.045 L 759.579 1080.045 L 773.053 1056.708 L 800 1056.708 L 786.526 1033.371 L 759.579 1033.371 L 746.105 1056.708 L 719.158 1056.708 L 692.211 1056.708 L 705.684 1033.371 L 732.632 1033.371 L 719.158 1010.034 L 692.211 1010.034 L 678.737 986.697 L 692.211 963.36 L 705.684 940.023 L 719.158 963.36 L 705.684 986.697 L 732.632 986.697 L 746.105 963.36 L 773.053 963.36 L 786.526 986.697 L 759.579 986.697 L 746.105 1010.034 L 773.053 1010.034 L 800 1010.034 L 813.474 986.697 L 800 963.36 L 813.474 940.023 L 826.947 963.36 L 853.895 963.36 L 840.421 940.023 L 826.947 916.686 L 800 916.686 L 786.526 940.023 L 759.579 940.023 L 732.632 940.023 L 746.105 916.686 L 773.053 916.686 L 759.579 893.348 L 732.632 893.348 L 719.158 916.686 L 692.211 916.686 L 705.684 893.348 L 692.211 870.011 L 678.737 893.348 L 665.263 916.686 L 678.737 940.023 L 665.263 963.36 L 638.316 963.36 L 611.368 963.36 L 624.842 940.023 L 651.789 940.023 L 638.316 916.686 L 611.368 916.686 L 597.895 940.023 L 570.947 940.023 L 544 940.023 L 557.474 916.686 L 584.421 916.686 L 570.947 893.348 L 544 893.348 L 530.526 870.011 L 544 846.674 L 557.474 823.337 L 570.947 846.674 L 557.474 870.011 L 584.421 870.011 L 597.895 846.674 L 624.842 846.674 L 638.316 870.011 L 611.368 870.011 L 597.895 893.348 L 624.842 893.348 L 651.789 893.348 L 665.263 870.011 L 651.789 846.674 L 665.263 823.337 L 678.737 846.674 L 705.684 846.674 L 692.211 823.337 L 678.737 800 L 651.789 800 L 638.316 823.337 L 611.368 823.337 L 584.421 823.337 L 597.895 800 L 624.842 800 L 611.368 776.663 L 584.421 776.663 L 570.947 753.326 L 584.421 729.989 L 597.895 753.326 L 624.842 753.326 L 611.368 729.989 L 597.895 706.652 L 570.947 706.652 L 557.474 683.314 L 570.947 659.977 L 584.421 636.64 L 597.895 659.977 L 584.421 683.314 L 611.368 683.314 L 624.842 659.977 L 611.368 636.64 L 624.842 613.303 L 638.316 589.966 L 651.789 613.303 L 638.316 636.64 L 665.263 636.64 L 678.737 613.303 L 705.684 613.303 L 719.158 636.64 L 732.632 659.977 L 705.684 659.977 L 692.211 636.64 L 678.737 659.977 L 692.211 683.314 L 678.737 706.652 L 651.789 706.652 L 665.263 683.314 L 651.789 659.977 L 638.316 683.314 L 624.842 706.652 L 638.316 729.989 L 665.263 729.989 L 678.737 753.326 L 651.789 753.326 L 638.316 776.663 L 665.263 776.663 L 692.211 776.663 L 705.684 753.326 L 692.211 729.989 L 705.684 706.652 L 719.158 683.314 L 732.632 706.652 L 719.158 729.989 L 746.105 729.989 L 759.579 706.652 L 786.526 706.652 L 800 729.989 L 773.053 729.989 L 759.579 753.326 L 786.526 753.326 L 813.474 753.326 L 826.947 729.989 L 853.895 729.989 L 867.368 753.326 L 880.842 776.663 L 853.895 776.663 L 840.421 753.326 L 826.947 776.663 L 840.421 800 L 826.947 823.337 L 800 823.337 L 773.053 823.337 L 786.526 800 L 813.474 800 L 800 776.663 L 773.053 776.663 L 759.579 800 L 732.632 800 L 746.105 776.663 L 732.632 753.326 L 719.158 776.663 L 705.684 800 L 719.158 823.337 L 746.105 823.337 L 759.579 846.674 L 732.632 846.674 L 719.158 870.011 L 746.105 870.011 L 773.053 870.011 L 786.526 846.674 L 813.474 846.674 L 826.947 870.011 L 800 870.011 L 786.526 893.348 L 813.474 893.348 L 840.421 893.348 L 853.895 870.011 L 840.421 846.674 L 853.895 823.337 L 867.368 800 L 880.842 823.337 L 867.368 846.674 L 894.316 846.674 L 907.789 823.337 L 894.316 800 L 907.789 776.663 L 921.263 800 L 948.211 800 L 934.737 776.663 L 921.263 753.326 L 894.316 753.326 L 880.842 729.989 L 894.316 706.652 L 907.789 683.314 L 921.263 706.652 L 907.789 729.989 L 934.737 729.989 L 948.211 706.652 L 975.158 706.652 L 988.632 729.989 L 1002.105 753.326 L 975.158 753.326 L 961.684 729.989 L 948.211 753.326 L 961.684 776.663 L 988.632 776.663 L 1002.105 800 L 975.158 800 L 961.684 823.337 L 988.632 823.337 L 1015.579 823.337 L 1029.053 800 L 1015.579 776.663 L 1029.053 753.326 L 1042.526 776.663 L 1069.474 776.663 L 1056 753.326 L 1042.526 729.989 L 1015.579 729.989 L 1002.105 706.652 L 1015.579 683.314 L 1029.053 706.652 L 1056 706.652 L 1042.526 683.314 L 1029.053 659.977 L 1002.105 659.977 L 988.632 683.314 L 961.684 683.314 L 934.737 683.314 L 948.211 659.977 L 975.158 659.977 L 961.684 636.64 L 934.737 636.64 L 921.263 659.977 L 894.316 659.977 L 907.789 636.64 L 894.316 613.303 L 880.842 636.64 L 867.368 659.977 L 880.842 683.314 L 867.368 706.652 L 840.421 706.652 L 813.474 706.652 L 826.947 683.314 L 853.895 683.314 L 840.421 659.977 L 813.474 659.977 L 800 683.314 L 773.053 683.314 L 746.105 683.314 L 759.579 659.977 L 786.526 659.977 L 773.053 636.64 L 746.105 636.64 L 732.632 613.303 L 746.105 589.966 L 759.579 566.629 L 773.053 589.966 L 759.579 613.303 L 786.526 613.303 L 800 589.966 L 826.947 589.966 L 840.421 613.303 L 813.474 613.303 L 800 636.64 L 826.947 636.64 L 853.895 636.64 L 867.368 613.303 L 853.895 589.966 L 867.368 566.629 L 880.842 589.966 L 907.789 589.966 L 894.316 566.629 L 880.842 543.292 L 853.895 543.292 L 840.421 566.629 L 813.474 566.629 L 786.526 566.629 L 800 543.292 L 826.947 543.292 L 813.474 519.955 L 786.526 519.955 L 773.053 543.292 L 746.105 543.292 L 759.579 519.955 L 746.105 496.618 L 732.632 519.955 L 719.158 543.292 L 732.632 566.629 L 719.158 589.966 L 692.211 589.966 L 665.263 589.966 L 678.737 566.629 L 705.684 566.629 L 692.211 543.292 L 665.263 543.292 L 651.789 519.955 L 665.263 496.618 L 678.737 473.281 L 692.211 496.618 L 678.737 519.955 L 705.684 519.955 L 719.158 496.618 L 705.684 473.281 L 719.158 449.943 L 732.632 473.281 L 759.579 473.281 L 746.105 449.943 L 732.632 426.606 L 705.684 426.606 L 692.211 449.943 L 665.263 449.943 L 678.737 426.606 L 665.263 403.269 L 651.789 426.606 L 638.316 449.943 L 651.789 473.281 L 638.316 496.618 L 611.368 496.618 L 624.842 473.281 L 611.368 449.943 L 597.895 473.281 L 584.421 496.618 L 597.895 519.955 L 624.842 519.955 L 638.316 543.292 L 651.789 566.629 L 624.842 566.629 L 611.368 543.292 L 597.895 566.629 L 611.368 589.966 L 597.895 613.303 L 570.947 613.303 L 584.421 589.966 L 570.947 566.629 L 557.474 589.966 L 544 613.303 L 557.474 636.64 L 544 659.977 L 517.053 659.977 L 490.105 659.977 L 503.579 636.64 L 530.526 636.64 L 517.053 613.303 L 490.105 613.303 L 476.632 636.64 L 449.684 636.64 L 422.737 636.64 L 436.211 613.303 L 463.158 613.303 L 449.684 589.966 L 422.737 589.966 L 409.263 566.629 L 422.737 543.292 L 436.211 519.955 L 449.684 543.292 L 436.211 566.629 L 463.158 566.629 L 476.632 543.292 L 503.579 543.292 L 517.053 566.629 L 490.105 566.629 L 476.632 589.966 L 503.579 589.966 L 530.526 589.966 L 544 566.629 L 530.526 543.292 L 544 519.955 L 557.474 543.292 L 584.421 543.292 L 570.947 519.955 L 557.474 496.618 L 530.526 496.618 L 517.053 519.955 L 490.105 519.955 L 463.158 519.955 L 476.632 496.618 L 503.579 496.618 L 490.105 473.281 L 463.158 473.281 L 449.684 449.943 L 463.158 426.606 L 476.632 449.943 L 503.579 449.943 L 490.105 426.606 L 476.632 403.269 L 449.684 403.269 L 436.211 379.932 L 449.684 356.595 L 463.158 333.258 L 476.632 356.595 L 463.158 379.932 L 490.105 379.932 L 503.579 356.595 L 490.105 333.258 L 503.579 309.921 L 517.053 286.584 L 530.526 309.921 L 517.053 333.258 L 544 333.258 L 557.474 309.921 L 584.421 309.921 L 597.895 333.258 L 611.368 356.595 L 584.421 356.595 L 570.947 333.258 L 557.474 356.595 L 570.947 379.932 L 557.474 403.269 L 530.526 403.269 L 544 379.932 L 530.526 356.595 L 517.053 379.932 L 503.579 403.269 L 517.053 426.606 L 544 426.606 L 557.474 449.943 L 530.526 449.943 L 517.053 473.281 L 544 473.281 L 570.947 473.281 L 584.421 449.943 L 570.947 426.606 L 584.421 403.269 L 597.895 379.932 L 611.368 403.269 L 597.895 426.606 L 624.842 426.606 L 638.316 403.269 L 624.842 379.932 L 638.316 356.595 L 651.789 379.932 L 678.737 379.932 L 665.263 356.595 L 651.789 333.258 L 624.842 333.258 L 611.368 309.921 L 624.842 286.584 L 638.316 263.247 L 651.789 286.584 L 638.316 309.921 L 665.263 309.921 L 678.737 286.584 L 705.684 286.584 L 719.158 309.921 L 732.632 333.258 L 705.684 333.258 L 692.211 309.921 L 678.737 333.258 L 692.211 356.595 L 719.158 356.595 L 732.632 379.932 L 705.684 379.932 L 692.211 403.269 L 719.158 403.269 L 746.105 403.269 L 759.579 379.932 L 746.105 356.595 L 759.579 333.258 L 773.053 356.595 L 800 356.595 L 786.526 333.258 L 773.053 309.921 L 746.105 309.921 L 732.632 286.584 L 746.105 263.247 L 759.579 286.584 L 786.526 286.584 L 773.053 263.247 L 759.579 239.909 L 732.632 239.909 L 719.158 263.247 L 692.211 263.247 L 665.263 263.247 L 678.737 239.909 L 705.684 239.909 L 692.211 216.572 L 665.263 216.572 L 651.789 239.909 L 624.842 239.909 L 638.316 216.572 L 624.842 193.235 L 611.368 216.572 L 597.895 239.909 L 611.368 263.247 L 597.895 286.584 L 570.947 286.584 L 544 286.584 L 557.474 263.247 L 584.421 263.247 L 570.947 239.909 L 544 239.909 L 530.526 216.572 L 544 193.235 L 557.474 169.898 L 570.947 193.235 L 557.474 216.572 L 584.421 216.572 L 597.895 193.235 L 584.421 169.898 L 597.895 146.561 L 611.368 169.898 L 638.316 169.898 L 624.842 146.561 L 611.368 123.224 L 584.421 123.224 L 570.947 146.561 L 544 146.561 L 557.474 123.224 L 544 99.887 L 530.526 123.224 L 517.053 146.561 L 530.526 169.898 L 517.053 193.235 L 490.105 193.235 L 503.579 169.898 L 490.105 146.561 L 476.632 169.898 L 463.158 193.235 L 476.632 216.572 L 503.579 216.572 L 517.053 239.909 L 530.526 263.247 L 503.579 263.247 L 490.105 239.909 L 476.632 263.247 L 490.105 286.584 L 476.632 309.921 L 449.684 309.921 L 463.158 286.584 L 449.684 263.247 L 436.211 286.584 L 422.737 309.921 L 436.211 333.258 L 422.737 356.595 L 395.789 356.595 L 368.842 356.595 L 382.316 333.258 L 409.263 333.258 L 395.789 309.921 L 368.842 309.921 L 355.368 286.584 L 368.842 263.247 L 382.316 239.909 L 395.789 263.247 L 382.316 286.584 L 409.263 286.584 L 422.737 263.247 L 409.263 239.909 L 422.737 216.572 L 436.211 239.909 L 463.158 239.909 L 449.684 216.572 L 436.211 193.235 L 409.263 193.235 L 395.789 216.572 L 368.842 216.572 L 382.316 193.235 L 368.842 169.898 L 355.368 193.235 L 341.895 216.572 L 355.368 239.909 L 341.895 263.247 L 314.947 263.247 L 328.421 239.909 L 314.947 216.572 L 301.474 239.909 L 288 263.247 L 301.474 286.584 L 328.421 286.584 L 341.895 309.921 L 355.368 333.258 L 328.421 333.258 L 314.947 309.921 L 301.474 333.258 L 314.947 356.595 L 341.895 356.595 L 355.368 379.932 L 328.421 379.932 L 314.947 403.269 L 341.895 403.269 L 368.842 403.269 L 382.316 379.932 L 409.263 379.932 L 422.737 403.269 L 436.211 426.606 L 409.263 426.606 L 395.789 403.269 L 382.316 426.606 L 395.789 449.943 L 422.737 449.943 L 436.211 473.281 L 449.684 496.618 L 422.737 496.618 L 409.263 473.281 L 395.789 496.618 L 409.263 519.955 L 395.789 543.292 L 368.842 543.292 L 341.895 543.292 L 355.368 519.955 L 382.316 519.955 L 368.842 496.618 L 341.895 496.618 L 328.421 473.281 L 341.895 449.943 L 355.368 473.281 L 382.316 473.281 L 368.842 449.943 L 355.368 426.606 L 328.421 426.606 L 314.947 449.943 L 288 449.943 L 301.474 426.606 L 288 403.269 L 274.526 426.606 L 261.053 449.943 L 274.526 473.281 L 301.474 473.281 L 314.947 496.618 L 328.421 519.955 L 301.474 519.955 L 288 496.618 L 274.526 519.955 L 288 543.292 L 314.947 543.292 L 328.421 566.629 L 301.474 566.629 L 288 589.966 L 314.947 589.966 L 341.895 589.966 L 355.368 566.629 L 382.316 566.629 L 395.789 589.966 L 409.263 613.303 L 382.316 613.303 L 368.842 589.966 L 355.368 613.303 L 368.842 636.64 L 355.368 659.977 L 328.421 659.977 L 301.474 659.977 L 314.947 636.64 L 341.895 636.64 L 328.421 613.303 L 301.474 613.303 L 288 636.64 L 261.053 636.64 L 274.526 613.303 L 261.053 589.966 L 247.579 613.303 L 234.105 636.64 L 247.579 659.977 L 274.526 659.977 L 288 683.314 L 261.053 683.314 L 247.579 706.652 L 274.526 706.652 L 301.474 706.652 L 314.947 683.314 L 341.895 683.314 L 355.368 706.652 L 328.421 706.652 L 314.947 729.989 L 341.895 729.989 L 368.842 729.989 L 382.316 706.652 L 368.842 683.314 L 382.316 659.977 L 395.789 636.64 L 409.263 659.977 L 395.789 683.314 L 422.737 683.314 L 436.211 659.977 L 463.158 659.977 L 476.632 683.314 L 449.684 683.314 L 436.211 706.652 L 463.158 706.652 L 490.105 706.652 L 503.579 683.314 L 530.526 683.314 L 544 706.652 L 557.474 729.989 L 530.526 729.989 L 517.053 706.652 L 503.579 729.989 L 517.053 753.326 L 544 753.326 L 557.474 776.663 L 570.947 800 L 544 800 L 530.526 776.663 L 517.053 800 L 530.526 823.337 L 517.053 846.674 L 490.105 846.674 L 463.158 846.674 L 476.632 823.337 L 503.579 823.337 L 490.105 800 L 463.158 800 L 449.684 776.663 L 463.158 753.326 L 476.632 776.663 L 503.579 776.663 L 490.105 753.326 L 476.632 729.989 L 449.684 729.989 L 436.211 753.326 L 409.263 753.326 L 422.737 729.989 L 409.263 706.652 L 395.789 729.989 L 382.316 753.326 L 395.789 776.663 L 422.737 776.663 L 436.211 800 L 449.684 823.337 L 422.737 823.337 L 409.263 800 L 395.789 823.337 L 409.263 846.674 L 395.789 870.011 L 368.842 870.011 L 382.316 846.674 L 368.842 823.337 L 355.368 846.674 L 341.895 870.011 L 355.368 893.348 L 341.895 916.686 L 314.947 916.686 L 288 916.686 L 301.474 893.348 L 328.421 893.348 L 314.947 870.011 L 288 870.011 L 274.526 893.348 L 247.579 893.348 L 220.632 893.348 L 234.105 870.011 L 261.053 870.011 L 247.579 846.674 L 220.632 846.674 L 207.158 823.337 L 220.632 800 L 234.105 776.663 L 247.579 800 L 234.105 823.337 L 261.053 823.337 L 274.526 800 L 301.474 800 L 314.947 823.337 L 288 823.337 L 274.526 846.674 L 301.474 846.674 L 328.421 846.674 L 341.895 823.337 L 328.421 800 L 341.895 776.663 L 355.368 800 L 382.316 800 L 368.842 776.663 L 355.368 753.326 L 328.421 753.326 L 314.947 776.663 L 288 776.663 L 261.053 776.663 L 274.526 753.326 L 301.474 753.326 L 288 729.989 L 261.053 729.989 L 247.579 753.326 L 220.632 753.326 L 234.105 729.989 L 220.632 706.652 L 207.158 729.989 L 193.684 753.326 L 207.158 776.663 L 193.684 800 L 166.737 800 L 139.789 800 L 153.263 776.663 L 180.211 776.663 L 166.737 753.326 L 139.789 753.326 L 126.316 729.989 L 139.789 706.652 L 153.263 683.314 L 166.737 706.652 L 153.263 729.989 L 180.211 729.989 L 193.684 706.652 L 180.211 683.314 L 193.684 659.977 L 207.158 683.314 L 234.105 683.314 L 220.632 659.977 L 207.158 636.64 L 180.211 636.64 L 166.737 659.977 L 139.789 659.977 L 153.263 636.64 L 139.789 613.303 L 126.316 636.64 L 112.842 659.977 L 126.316 683.314 L 112.842 706.652 L 85.895 706.652 L 99.368 683.314 L 85.895 659.977 L 72.421 683.314 L 58.947 706.652 L 72.421 729.989 L 99.368 729.989 L 112.842 753.326 L 126.316 776.663 L 99.368 776.663 L 85.895 753.326 L 72.421 776.663 L 85.895 800 L 112.842 800 L 126.316 823.337 L 99.368 823.337 L 85.895 846.674 L 112.842 846.674 L 139.789 846.674 L 153.263 823.337 L 180.211 823.337 L 193.684 846.674 L 207.158 870.011 L 180.211 870.011 L 166.737 846.674 L 153.263 870.011 L 166.737 893.348 L 153.263 916.686 L 126.316 916.686 L 99.368 916.686 L 112.842 893.348 L 139.789 893.348 L 126.316 870.011 L 99.368 870.011 L 85.895 893.348 L 58.947 893.348 L 72.421 870.011 L 58.947 846.674 L 45.474 870.011 L 32 893.348 L 45.474 916.686 L 72.421 916.686 L 85.895 940.023 L 58.947 940.023 L 45.474 963.36 L 72.421 963.36 L 99.368 963.36 L 112.842 940.023 L 139.789 940.023 L 153.263 963.36 L 126.316 963.36 L 112.842 986.697 L 139.789 986.697 L 166.737 986.697 L 180.211 963.36 L 166.737 940.023 L 180.211 916.686 L 193.684 893.348 L 207.158 916.686 L 193.684 940.023 L 220.632 940.023 L 234.105 916.686 L 261.053 916.686 L 274.526 940.023 L 247.579 940.023 L 234.105 963.36 L 261.053 963.36 L 288 963.36 L 301.474 940.023 L 328.421 940.023 L 341.895 963.36 L 355.368 986.697 L 328.421 986.697 L 314.947 963.36 L 301.474 986.697 L 314.947 1010.034 L 301.474 1033.371 L 274.526 1033.371 L 247.579 1033.371 L 261.053 1010.034 L 288 1010.034 L 274.526 986.697 L 247.579 986.697 L 234.105 1010.034 L 207.158 1010.034 L 220.632 986.697 L 207.158 963.36 L 193.684 986.697 L 180.211 1010.034 L 193.684 1033.371 L 220.632 1033.371 L 234.105 1056.708 L 207.158 1056.708 L 193.684 1080.045 L 220.632 1080.045 L 247.579 1080.045 L 261.053 1056.708 L 288 1056.708 L 301.474 1080.045 L 274.526 1080.045 L 261.053 1103.382 L 288 1103.382 L 314.947 1103.382 L 328.421 1080.045 L 314.947 1056.708 L 328.421 1033.371 L 341.895 1010.034 L 355.368 1033.371 L 341.895 1056.708 L 368.842 1056.708 L 382.316 1033.371 L 368.842 1010.034 L 382.316 986.697 L 395.789 1010.034 L 422.737 1010.034 L 409.263 986.697 L 395.789 963.36 L 368.842 963.36 L 355.368 940.023 L 368.842 916.686 L 382.316 893.348 L 395.789 916.686 L 382.316 940.023 L 409.263 940.023 L 422.737 916.686 L 409.263 893.348 L 422.737 870.011 L 436.211 846.674 L 449.684 870.011 L 436.211 893.348 L 463.158 893.348 L 476.632 870.011 L 503.579 870.011 L 517.053 893.348 L 530.526 916.686 L 503.579 916.686 L 490.105 893.348 L 476.632 916.686 L 490.105 940.023 L 476.632 963.36 L 449.684 963.36 L 463.158 940.023 L 449.684 916.686 L 436.211 940.023 L 422.737 963.36 L 436.211 986.697 L 463.158 986.697 L 476.632 1010.034 L 449.684 1010.034 L 436.211 1033.371 L 463.158 1033.371 L 490.105 1033.371 L 503.579 1010.034 L 490.105 986.697 L 503.579 963.36 L 517.053 940.023 L 530.526 963.36 L 517.053 986.697 L 544 986.697 L 557.474 963.36 L 584.421 963.36 L 597.895 986.697 L 570.947 986.697 L 557.474 1010.034 L 584.421 1010.034 L 611.368 1010.034 L 624.842 986.697 L 651.789 986.697 L 665.263 1010.034 L 678.737 1033.371 L 651.789 1033.371 L 638.316 1010.034 L 624.842 1033.371 L 638.316 1056.708 L 624.842 1080.045 L 597.895 1080.045 L 570.947 1080.045 L 584.421 1056.708 L 611.368 1056.708 L 597.895 1033.371 L 570.947 1033.371 L 557.474 1056.708 L 530.526 1056.708 L 544 1033.371 L 530.526 1010.034 L 517.053 1033.371 L 503.579 1056.708 L 517.053 1080.045 L 544 1080.045 L 557.474 1103.382 L 530.526 1103.382 L 517.053 1126.719 L 544 1126.719 L 570.947 1126.719 L 584.421 1103.382 L 611.368 1103.382 L 624.842 1126.719 L 597.895 1126.719 L 584.421 1150.057 L 611.368 1150.057 L 638.316 1150.057 L 651.789 1126.719 L 638.316 1103.382 L 651.789 1080.045 L 665.263 1056.708 L 678.737 1080.045 L 665.263 1103.382 L 692.211 1103.382 L 705.684 1080.045 L 732.632 1080.045 L 746.105 1103.382 L 719.158 1103.382 L 705.684 1126.719 L 732.632 1126.719 L 759.579 1126.719 L 773.053 1103.382 L 800 1103.382 L 813.474 1126.719 L 826.947 1150.057 L 800 1150.057 L 786.526 1126.719 L 773.053 1150.057 L 786.526 1173.394 L 813.474 1173.394 L 826.947 1196.731 L 840.421 1220.068 L 813.474 1220.068 L 800 1196.731 L 786.526 1220.068 L 800 1243.405 L 786.526 1266.742 L 759.579 1266.742 L 732.632 1266.742 L 746.105 1243.405 L 773.053 1243.405 L 759.579 1220.068 L 732.632 1220.068 L 719.158 1196.731 L 732.632 1173.394 L 746.105 1196.731 L 773.053 1196.731 L 759.579 1173.394 L 746.105 1150.057 L 719.158 1150.057 L 705.684 1173.394 L 678.737 1173.394 L 692.211 1150.057 L 678.737 1126.719 L 665.263 1150.057 L 651.789 1173.394 L 665.263 1196.731 L 692.211 1196.731 L 705.684 1220.068 L 719.158 1243.405 L 692.211 1243.405 L 678.737 1220.068 L 665.263 1243.405 L 678.737 1266.742 L 665.263 1290.079 L 638.316 1290.079 L 651.789 1266.742 L 638.316 1243.405 L 624.842 1266.742 L 611.368 1290.079 L 624.842 1313.416 L 611.368 1336.753 L 584.421 1336.753 L 557.474 1336.753 L 570.947 1313.416 L 597.895 1313.416 L 584.421 1290.079 L 557.474 1290.079 L 544 1313.416 L 517.053 1313.416 L 490.105 1313.416 L 503.579 1290.079 L 530.526 1290.079 L 517.053 1266.742 L 490.105 1266.742 L 476.632 1243.405 L 490.105 1220.068 L 503.579 1196.731 L 517.053 1220.068 L 503.579 1243.405 L 530.526 1243.405 L 544 1220.068 L 570.947 1220.068 L 584.421 1243.405 L 557.474 1243.405 L 544 1266.742 L 570.947 1266.742 L 597.895 1266.742 L 611.368 1243.405 L 597.895 1220.068 L 611.368 1196.731 L 624.842 1220.068 L 651.789 1220.068 L 638.316 1196.731 L 624.842 1173.394 L 597.895 1173.394 L 584.421 1196.731 L 557.474 1196.731 L 530.526 1196.731 L 544 1173.394 L 570.947 1173.394 L 557.474 1150.057 L 530.526 1150.057 L 517.053 1173.394 L 490.105 1173.394 L 503.579 1150.057 L 490.105 1126.719 L 476.632 1150.057 L 463.158 1173.394 L 476.632 1196.731 L 463.158 1220.068 L 436.211 1220.068 L 409.263 1220.068 L 422.737 1196.731 L 449.684 1196.731 L 436.211 1173.394 L 409.263 1173.394 L 395.789 1150.057 L 409.263 1126.719 L 422.737 1103.382 L 436.211 1126.719 L 422.737 1150.057 L 449.684 1150.057 L 463.158 1126.719 L 449.684 1103.382 L 463.158 1080.045 L 476.632 1103.382 L 503.579 1103.382 L 490.105 1080.045 L 476.632 1056.708 L 449.684 1056.708 L 436.211 1080.045 L 409.263 1080.045 L 422.737 1056.708 L 409.263 1033.371 L 395.789 1056.708 L 382.316 1080.045 L 395.789 1103.382 L 382.316 1126.719 L 355.368 1126.719 L 368.842 1103.382 L 355.368 1080.045 L 341.895 1103.382 L 328.421 1126.719 L 341.895 1150.057 L 368.842 1150.057 L 382.316 1173.394 L 395.789 1196.731 L 368.842 1196.731 L 355.368 1173.394 L 341.895 1196.731 L 355.368 1220.068 L 382.316 1220.068 L 395.789 1243.405 L 368.842 1243.405 L 355.368 1266.742 L 382.316 1266.742 L 409.263 1266.742 L 422.737 1243.405 L 449.684 1243.405 L 463.158 1266.742 L 476.632 1290.079 L 449.684 1290.079 L 436.211 1266.742 L 422.737 1290.079 L 436.211 1313.416 L 422.737 1336.753 L 395.789 1336.753 L 368.842 1336.753 L 382.316 1313.416 L 409.263 1313.416 L 395.789 1290.079 L 368.842 1290.079 L 355.368 1313.416 L 328.421 1313.416 L 341.895 1290.079 L 328.421 1266.742 L 314.947 1290.079 L 301.474 1313.416 L 314.947 1336.753 L 341.895 1336.753 L 355.368 1360.091 L 328.421 1360.091 L 314.947 1383.428 L 341.895 1383.428 L 368.842 1383.428 L 382.316 1360.091 L 409.263 1360.091 L 422.737 1383.428 L 395.789 1383.428 L 382.316 1406.765 L 409.263 1406.765 L 436.211 1406.765 L 449.684 1383.428 L 436.211 1360.091 L 449.684 1336.753 L 463.158 1313.416 L 476.632 1336.753 L 463.158 1360.091 L 490.105 1360.091 L 503.579 1336.753 L 530.526 1336.753 L 544 1360.091 L 517.053 1360.091 L 503.579 1383.428 L 530.526 1383.428 L 557.474 1383.428 L 570.947 1360.091 L 597.895 1360.091 L 611.368 1383.428 L 624.842 1406.765 L 597.895 1406.765 L 584.421 1383.428 L 570.947 1406.765 L 584.421 1430.102 L 570.947 1453.439 L 544 1453.439 L 517.053 1453.439 L 530.526 1430.102 L 557.474 1430.102 L 544 1406.765 L 517.053 1406.765 L 503.579 1430.102 L 476.632 1430.102 L 490.105 1406.765 L 476.632 1383.428 L 463.158 1406.765 L 449.684 1430.102 L 463.158 1453.439 L 490.105 1453.439 L 503.579 1476.776 L 476.632 1476.776 L 463.158 1500.113 L 490.105 1500.113 L 517.053 1500.113 L 530.526 1476.776 L 557.474 1476.776 L 570.947 1500.113 L 544 1500.113 L 530.526 1523.45 L 557.474 1523.45 L 584.421 1523.45 L 597.895 1500.113 L 584.421 1476.776 L 597.895 1453.439 L 611.368 1430.102 L 624.842 1453.439 L 611.368 1476.776 L 638.316 1476.776 L 651.789 1453.439 L 638.316 1430.102 L 651.789 1406.765 L 665.263 1430.102 L 692.211 1430.102 L 678.737 1406.765 L 665.263 1383.428 L 638.316 1383.428 L 624.842 1360.091 L 638.316 1336.753 L 651.789 1313.416 L 665.263 1336.753 L 651.789 1360.091 L 678.737 1360.091 L 692.211 1336.753 L 678.737 1313.416 L 692.211 1290.079 L 705.684 1266.742 L 719.158 1290.079 L 705.684 1313.416 L 732.632 1313.416 L 746.105 1290.079 L 773.053 1290.079 L 786.526 1313.416 L 800 1336.753 L 773.053 1336.753 L 759.579 1313.416 L 746.105 1336.753 L 759.579 1360.091 L 746.105 1383.428 L 719.158 1383.428 L 732.632 1360.091 L 719.158 1336.753 L 705.684 1360.091 L 692.211 1383.428 L 705.684 1406.765 L 732.632 1406.765 L 746.105 1430.102 L 719.158 1430.102 L 705.684 1453.439 L 732.632 1453.439 L 759.579 1453.439 L 773.053 1430.102 L 759.579 1406.765 L 773.053 1383.428 L 786.526 1360.091 L 800 1383.428 L 786.526 1406.765 L 813.474 1406.765 L 826.947 1383.428 L 813.474 1360.091 L 826.947 1336.753 L 840.421 1360.091 L 867.368 1360.091 L 853.895 1336.753 L 840.421 1313.416 L 813.474 1313.416 L 800 1290.079 L 813.474 1266.742 L 826.947 1243.405 L 840.421 1266.742 L 826.947 1290.079 L 853.895 1290.079 L 867.368 1266.742 L 894.316 1266.742 L 907.789 1290.079 L 921.263 1313.416 L 894.316 1313.416 L 880.842 1290.079 L 867.368 1313.416 L 880.842 1336.753 L 907.789 1336.753 L 921.263 1360.091 L 894.316 1360.091 L 880.842 1383.428 L 907.789 1383.428 L 934.737 1383.428 L 948.211 1360.091 L 934.737 1336.753 L 948.211 1313.416 L 961.684 1336.753 L 988.632 1336.753 L 975.158 1313.416 L 961.684 1290.079 L 934.737 1290.079 L 921.263 1266.742 L 934.737 1243.405 L 948.211 1266.742 L 975.158 1266.742 L 961.684 1243.405 L 948.211 1220.068 L 921.263 1220.068 L 907.789 1243.405 L 880.842 1243.405 L 853.895 1243.405 L 867.368 1220.068 L 894.316 1220.068 L 880.842 1196.731 L 853.895 1196.731 L 840.421 1173.394 L 853.895 1150.057 L 867.368 1173.394 L 894.316 1173.394 L 880.842 1150.057 L 867.368 1126.719 L 840.421 1126.719 L 826.947 1103.382 L 840.421 1080.045 L 853.895 1056.708 L 867.368 1080.045 L 853.895 1103.382 L 880.842 1103.382 L 894.316 1080.045 L 880.842 1056.708 L 894.316 1033.371 L 907.789 1010.034 L 921.263 1033.371 L 907.789 1056.708 L 934.737 1056.708 L 948.211 1033.371 L 975.158 1033.371 L 988.632 1056.708 L 1002.105 1080.045 L 975.158 1080.045 L 961.684 1056.708 L 948.211 1080.045 L 961.684 1103.382 L 948.211 1126.719 L 921.263 1126.719 L 934.737 1103.382 L 921.263 1080.045 L 907.789 1103.382 L 894.316 1126.719 L 907.789 1150.057 L 934.737 1150.057 L 948.211 1173.394 L 921.263 1173.394 L 907.789 1196.731 L 934.737 1196.731 L 961.684 1196.731 L 975.158 1173.394 L 961.684 1150.057 L 975.158 1126.719 L 988.632 1103.382 L 1002.105 1126.719 L 988.632 1150.057 L 1015.579 1150.057 L 1029.053 1126.719 L 1015.579 1103.382 L 1029.053 1080.045 L 1042.526 1103.382 L 1069.474 1103.382 L 1056 1080.045 L 1042.526 1056.708 L 1015.579 1056.708 L 1002.105 1033.371 L 1015.579 1010.034 L 1029.053 986.697 L 1042.526 1010.034 L 1029.053 1033.371 L 1056 1033.371 L 1069.474 1010.034 L 1056 986.697 L 1069.474 963.36 L 1082.947 940.023 L 1096.421 963.36 L 1082.947 986.697 L 1109.895 986.697 L 1123.368 963.36 L 1150.316 963.36 L 1163.789 986.697 L 1177.263 1010.034 L 1150.316 1010.034 L 1136.842 986.697 L 1123.368 1010.034 L 1136.842 1033.371 L 1123.368 1056.708 L 1096.421 1056.708 L 1109.895 1033.371 L 1096.421 1010.034 L 1082.947 1033.371 L 1069.474 1056.708 L 1082.947 1080.045 L 1109.895 1080.045 L 1123.368 1103.382 L 1096.421 1103.382 L 1082.947 1126.719 L 1109.895 1126.719 L 1136.842 1126.719 L 1150.316 1103.382 L 1136.842 1080.045 L 1150.316 1056.708 L 1163.789 1033.371 L 1177.263 1056.708 L 1163.789 1080.045 L 1190.737 1080.045 L 1204.211 1056.708 L 1231.158 1056.708 L 1244.632 1080.045 L 1217.684 1080.045 L 1204.211 1103.382 L 1231.158 1103.382 L 1258.105 1103.382 L 1271.579 1080.045 L 1298.526 1080.045 L 1312 1103.382 L 1325.474 1126.719 L 1298.526 1126.719 L 1285.053 1103.382 L 1271.579 1126.719 L 1285.053 1150.057 L 1312 1150.057 L 1325.474 1173.394 L 1338.947 1196.731 L 1312 1196.731 L 1298.526 1173.394 L 1285.053 1196.731 L 1298.526 1220.068 L 1285.053 1243.405 L 1258.105 1243.405 L 1231.158 1243.405 L 1244.632 1220.068 L 1271.579 1220.068 L 1258.105 1196.731 L 1231.158 1196.731 L 1217.684 1173.394 L 1231.158 1150.057 L 1244.632 1173.394 L 1271.579 1173.394 L 1258.105 1150.057 L 1244.632 1126.719 L 1217.684 1126.719 L 1204.211 1150.057 L 1177.263 1150.057 L 1190.737 1126.719 L 1177.263 1103.382 L 1163.789 1126.719 L 1150.316 1150.057 L 1163.789 1173.394 L 1190.737 1173.394 L 1204.211 1196.731 L 1217.684 1220.068 L 1190.737 1220.068 L 1177.263 1196.731 L 1163.789 1220.068 L 1177.263 1243.405 L 1163.789 1266.742 L 1136.842 1266.742 L 1150.316 1243.405 L 1136.842 1220.068 L 1123.368 1243.405 L 1109.895 1266.742 L 1123.368 1290.079 L 1109.895 1313.416 L 1082.947 1313.416 L 1056 1313.416 L 1069.474 1290.079 L 1096.421 1290.079 L 1082.947 1266.742 L 1056 1266.742 L 1042.526 1243.405 L 1056 1220.068 L 1069.474 1196.731 L 1082.947 1220.068 L 1069.474 1243.405 L 1096.421 1243.405 L 1109.895 1220.068 L 1096.421 1196.731 L 1109.895 1173.394 L 1123.368 1196.731 L 1150.316 1196.731 L 1136.842 1173.394 L 1123.368 1150.057 L 1096.421 1150.057 L 1082.947 1173.394 L 1056 1173.394 L 1069.474 1150.057 L 1056 1126.719 L 1042.526 1150.057 L 1029.053 1173.394 L 1042.526 1196.731 L 1029.053 1220.068 L 1002.105 1220.068 L 1015.579 1196.731 L 1002.105 1173.394 L 988.632 1196.731 L 975.158 1220.068 L 988.632 1243.405 L 1015.579 1243.405 L 1029.053 1266.742 L 1042.526 1290.079 L 1015.579 1290.079 L 1002.105 1266.742 L 988.632 1290.079 L 1002.105 1313.416 L 1029.053 1313.416 L 1042.526 1336.753 L 1015.579 1336.753 L 1002.105 1360.091 L 1029.053 1360.091 L 1056 1360.091 L 1069.474 1336.753 L 1096.421 1336.753 L 1109.895 1360.091 L 1123.368 1383.428 L 1096.421 1383.428 L 1082.947 1360.091 L 1069.474 1383.428 L 1082.947 1406.765 L 1069.474 1430.102 L 1042.526 1430.102 L 1015.579 1430.102 L 1029.053 1406.765 L 1056 1406.765 L 1042.526 1383.428 L 1015.579 1383.428 L 1002.105 1406.765 L 975.158 1406.765 L 988.632 1383.428 L 975.158 1360.091 L 961.684 1383.428 L 948.211 1406.765 L 961.684 1430.102 L 988.632 1430.102 L 1002.105 1453.439 L 975.158 1453.439 L 961.684 1476.776 L 988.632 1476.776 L 1015.579 1476.776 L 1029.053 1453.439 L 1056 1453.439 L 1069.474 1476.776 L 1042.526 1476.776 L 1029.053 1500.113 L 1056 1500.113 L 1082.947 1500.113 L 1096.421 1476.776 L 1082.947 1453.439 L 1096.421 1430.102 L 1109.895 1406.765 L 1123.368 1430.102 L 1109.895 1453.439 L 1136.842 1453.439 L 1150.316 1430.102 L 1136.842 1406.765 L 1150.316 1383.428 L 1163.789 1406.765 L 1190.737 1406.765 L 1177.263 1383.428 L 1163.789 1360.091 L 1136.842 1360.091 L 1123.368 1336.753 L 1136.842 1313.416 L 1150.316 1290.079 L 1163.789 1313.416 L 1150.316 1336.753 L 1177.263 1336.753 L 1190.737 1313.416 L 1177.263 1290.079 L 1190.737 1266.742 L 1204.211 1243.405 L 1217.684 1266.742 L 1204.211 1290.079 L 1231.158 1290.079 L 1244.632 1266.742 L 1271.579 1266.742 L 1285.053 1290.079 L 1298.526 1313.416 L 1271.579 1313.416 L 1258.105 1290.079 L 1244.632 1313.416 L 1258.105 1336.753 L 1244.632 1360.091 L 1217.684 1360.091 L 1231.158 1336.753 L 1217.684 1313.416 L 1204.211 1336.753 L 1190.737 1360.091 L 1204.211 1383.428 L 1231.158 1383.428 L 1244.632 1406.765 L 1217.684 1406.765 L 1204.211 1430.102 L 1231.158 1430.102 L 1258.105 1430.102 L 1271.579 1406.765 L 1258.105 1383.428 L 1271.579 1360.091 L 1285.053 1336.753 L 1298.526 1360.091 L 1285.053 1383.428 L 1312 1383.428 L 1325.474 1360.091" />
  <text class="label" x="32.0" y="1536.0">gOASper</text>
</svg>
